<svg xmlns="http://www.w3.org/2000/svg" xmlns:xlink="http://www.w3.org/1999/xlink" viewBox="0,0,256,256" width="100px" height="100px"><g fill="#ffffff" fill-rule="nonzero" stroke="none" stroke-width="1" stroke-linecap="butt" stroke-linejoin="miter" stroke-miterlimit="10" stroke-dasharray="" stroke-dashoffset="0" font-family="none" font-weight="none" font-size="none" text-anchor="none" style="mix-blend-mode: normal"><g transform="scale(9.84615,9.84615)"><path d="M13,0c-0.60156,0 -1,0.39844 -1,1v1.09375c-2.83203,0.47656 -5,2.94141 -5,5.90625v5c0,0.80078 -5,4.80078 -5,6c0,1.69922 4.39844,3 11,3c6.60156,0 11,-1.30078 11,-3c0,-1.19922 -5,-5.19922 -5,-6v-5c0,-2.96484 -2.16797,-5.42969 -5,-5.90625v-1.09375c0,-0.60156 -0.39844,-1 -1,-1zM11.3125,23.09375c-0.19922,0.30078 -0.3125,0.50781 -0.3125,0.90625c0,1.10156 0.89844,2 2,2c1.10156,0 2,-0.89844 2,-2c0,-0.39844 -0.11328,-0.60547 -0.3125,-0.90625z"></path></g></g></svg>